name rise42.5664peak47.7979fall81.9185.mot
datacolumns 19
datarows 21
range 20.89825500000000 20.93158800000000
endheader
time	ground_force1_vx	ground_force1_vy	ground_force1_vz	ground_force1_px	ground_force1_py	ground_force1_pz	ground_force2_vx	ground_force2_vy	ground_force2_vz	ground_force2_px	ground_force2_py	ground_force2_pz	ground_torque1_x	ground_torque1_y	ground_torque1_z	ground_torque2_x	ground_torque2_y	ground_torque2_z	
20.89825500000000	10.27483500000000	714.82168799999999	34.53826000000000	0.21732400000000	0.00000000000000	0.08493800000000	0.00000000000000	0.00000000000000	0.00000000000000	0.00000000000000	0.00000000000000	0.00000000000000	0.00000000000000	13.15982700000000	0.00000000000000	0.00000000000000	0.00000000000000	0.00000000000000	
20.89992600000000	9.89294700000000	715.68896199999995	34.52362800000000	0.21638200000000	0.00000000000000	0.08487300000000	0.00000000000000	0.00000000000000	0.00000000000000	0.00000000000000	0.00000000000000	0.00000000000000	0.00000000000000	13.18935000000000	0.00000000000000	0.00000000000000	0.00000000000000	0.00000000000000	
20.90158500000000	9.50045300000000	716.58288700000003	34.51294800000000	0.21541800000000	0.00000000000000	0.08480900000000	0.00000000000000	0.00000000000000	0.00000000000000	0.00000000000000	0.00000000000000	0.00000000000000	0.00000000000000	13.22256800000000	0.00000000000000	0.00000000000000	0.00000000000000	0.00000000000000	
20.90325200000000	9.09724100000000	717.50200199999995	34.50598800000000	0.21443400000000	0.00000000000000	0.08474800000000	0.00000000000000	0.00000000000000	0.00000000000000	0.00000000000000	0.00000000000000	0.00000000000000	0.00000000000000	13.25940200000000	0.00000000000000	0.00000000000000	0.00000000000000	0.00000000000000	
20.90495500000000	8.68323900000000	718.44487800000002	34.50251900000000	0.21343000000000	0.00000000000000	0.08468900000000	0.00000000000000	0.00000000000000	0.00000000000000	0.00000000000000	0.00000000000000	0.00000000000000	0.00000000000000	13.29977200000000	0.00000000000000	0.00000000000000	0.00000000000000	0.00000000000000	
20.90658500000000	8.25842500000000	719.41011800000001	34.50231800000000	0.21240600000000	0.00000000000000	0.08463200000000	0.00000000000000	0.00000000000000	0.00000000000000	0.00000000000000	0.00000000000000	0.00000000000000	0.00000000000000	13.34359200000000	0.00000000000000	0.00000000000000	0.00000000000000	0.00000000000000	
20.90825600000000	7.82281700000000	720.39635699999997	34.50516400000000	0.21136300000000	0.00000000000000	0.08457800000000	0.00000000000000	0.00000000000000	0.00000000000000	0.00000000000000	0.00000000000000	0.00000000000000	0.00000000000000	13.39077700000000	0.00000000000000	0.00000000000000	0.00000000000000	0.00000000000000	
20.90991700000000	7.37648100000000	721.40226600000005	34.51084500000000	0.21030300000000	0.00000000000000	0.08452500000000	0.00000000000000	0.00000000000000	0.00000000000000	0.00000000000000	0.00000000000000	0.00000000000000	0.00000000000000	13.44124000000000	0.00000000000000	0.00000000000000	0.00000000000000	0.00000000000000	
20.91158400000000	6.91952400000000	722.42654700000003	34.51915500000000	0.20922600000000	0.00000000000000	0.08447400000000	0.00000000000000	0.00000000000000	0.00000000000000	0.00000000000000	0.00000000000000	0.00000000000000	0.00000000000000	13.49489000000000	0.00000000000000	0.00000000000000	0.00000000000000	0.00000000000000	
20.91325000000000	6.45209800000000	723.46794000000000	34.52989300000000	0.20813300000000	0.00000000000000	0.08442500000000	0.00000000000000	0.00000000000000	0.00000000000000	0.00000000000000	0.00000000000000	0.00000000000000	0.00000000000000	13.55163400000000	0.00000000000000	0.00000000000000	0.00000000000000	0.00000000000000	
20.91493900000000	5.97439800000000	724.52521600000000	34.54286800000000	0.20702700000000	0.00000000000000	0.08437900000000	0.00000000000000	0.00000000000000	0.00000000000000	0.00000000000000	0.00000000000000	0.00000000000000	0.00000000000000	13.61137900000000	0.00000000000000	0.00000000000000	0.00000000000000	0.00000000000000	
20.91658700000000	5.48665900000000	725.59718499999997	34.55789700000000	0.20590700000000	0.00000000000000	0.08433300000000	0.00000000000000	0.00000000000000	0.00000000000000	0.00000000000000	0.00000000000000	0.00000000000000	0.00000000000000	13.67402800000000	0.00000000000000	0.00000000000000	0.00000000000000	0.00000000000000	
20.91825100000000	4.98915600000000	726.68268899999998	34.57480700000000	0.20477600000000	0.00000000000000	0.08429000000000	0.00000000000000	0.00000000000000	0.00000000000000	0.00000000000000	0.00000000000000	0.00000000000000	0.00000000000000	13.73948100000000	0.00000000000000	0.00000000000000	0.00000000000000	0.00000000000000	
20.91992100000000	4.48220500000000	727.78060400000004	34.59343300000000	0.20363500000000	0.00000000000000	0.08424800000000	0.00000000000000	0.00000000000000	0.00000000000000	0.00000000000000	0.00000000000000	0.00000000000000	0.00000000000000	13.80763800000000	0.00000000000000	0.00000000000000	0.00000000000000	0.00000000000000	
20.92158200000000	3.96615900000000	728.88984300000004	34.61362000000000	0.20248500000000	0.00000000000000	0.08420800000000	0.00000000000000	0.00000000000000	0.00000000000000	0.00000000000000	0.00000000000000	0.00000000000000	0.00000000000000	13.87839300000000	0.00000000000000	0.00000000000000	0.00000000000000	0.00000000000000	
20.92325100000000	3.44140600000000	730.00935000000004	34.63522700000000	0.20132900000000	0.00000000000000	0.08416900000000	0.00000000000000	0.00000000000000	0.00000000000000	0.00000000000000	0.00000000000000	0.00000000000000	0.00000000000000	13.95164300000000	0.00000000000000	0.00000000000000	0.00000000000000	0.00000000000000	
20.92495800000000	2.90836900000000	731.13810100000001	34.65812200000000	0.20016800000000	0.00000000000000	0.08413100000000	0.00000000000000	0.00000000000000	0.00000000000000	0.00000000000000	0.00000000000000	0.00000000000000	0.00000000000000	14.02727700000000	0.00000000000000	0.00000000000000	0.00000000000000	0.00000000000000	
20.92658500000000	2.36750100000000	732.27510600000005	34.68218400000000	0.19900300000000	0.00000000000000	0.08409500000000	0.00000000000000	0.00000000000000	0.00000000000000	0.00000000000000	0.00000000000000	0.00000000000000	0.00000000000000	14.10518700000000	0.00000000000000	0.00000000000000	0.00000000000000	0.00000000000000	
20.92826400000000	1.81928900000000	733.41940499999998	34.70730600000000	0.19783600000000	0.00000000000000	0.08405900000000	0.00000000000000	0.00000000000000	0.00000000000000	0.00000000000000	0.00000000000000	0.00000000000000	0.00000000000000	14.18525900000000	0.00000000000000	0.00000000000000	0.00000000000000	0.00000000000000	
20.92994400000000	1.26424600000000	734.57006699999999	34.73339300000000	0.19666900000000	0.00000000000000	0.08402500000000	0.00000000000000	0.00000000000000	0.00000000000000	0.00000000000000	0.00000000000000	0.00000000000000	0.00000000000000	14.26737800000000	0.00000000000000	0.00000000000000	0.00000000000000	0.00000000000000	
20.93158800000000	0.70290900000000	735.72619299999997	34.76036200000000	0.19550400000000	0.00000000000000	0.08399200000000	0.00000000000000	0.00000000000000	0.00000000000000	0.00000000000000	0.00000000000000	0.00000000000000	0.00000000000000	14.35142700000000	0.00000000000000	0.00000000000000	0.00000000000000	0.00000000000000	
